<?xml version="1.0" encoding="UTF-8"?>
<svg version="1.1" viewBox="0 0 1600 1200" xmlns="http://www.w3.org/2000/svg">
<rect width="1600" height="1200" fill="#fff"/>
<g stroke="#000" stroke-width="4">
<path d="m650.82 260.29 427.49 1.79c17.07 0 15.76 3.31 15.76 20.38l16.18 31.66v300.48c0 17.07-13.84 30.91-30.91 30.91h-429.96c-17.07 0-30.91-13.84-30.91-30.91v-300.48l14.8-28.5c0-17.07 0.48-25.33 17.55-25.33z" fill="#00a699"/>
<path d="m649.38 250.79h429.96c17.07 0 30.91 13.84 30.91 30.91v32.42h-491.78v-32.42c0-17.07 13.84-30.91 30.91-30.91z" fill="#d1fffb"/>
<path d="m1064.8 296.29c7.46 0 13.5-6.04 13.5-13.49s-6.04-13.49-13.5-13.49c-7.44 0-13.49 6.04-13.49 13.49s6.05 13.49 13.49 13.49z" fill="none" stroke-linecap="round" stroke-linejoin="round"/>
<path d="m1050.4 297.19 4.88-4.89" fill="none" stroke-linecap="round" stroke-linejoin="round"/>
</g>
<g stroke="#000" stroke-width="4">
<path d="m379.41 213.91 315.6 1.33c10.66 0 13.59 1.12 13.59 11.78l5.71 15.52v233.02c0 10.66-8.64 19.3-19.3 19.3h-315.6c-10.66 0-19.3-8.64-19.3-19.3v-233.02l5.21-15.52c0-10.66 3.43-13.11 14.09-13.11z" fill="#fff"/>
<path d="m379.41 207.72h315.6c10.66 0 19.3 8.64 19.3 19.3v15.52h-354.2v-15.52c0-10.66 8.64-19.3 19.3-19.3z" fill="#d5d5d5"/>
<path d="m387.32 231.58c3.33 0 6.02-2.7 6.02-6.02s-2.69-6.02-6.02-6.02c-3.32 0-6.01 2.7-6.01 6.02s2.69 6.02 6.01 6.02z" fill="#fff"/>
<path d="m406.88 231.58c3.33 0 6.02-2.7 6.02-6.02s-2.69-6.02-6.02-6.02c-3.32 0-6.02 2.7-6.02 6.02s2.7 6.02 6.02 6.02z" fill="#fff"/>
<path d="m426.44 231.58c3.32 0 6.02-2.7 6.02-6.02s-2.7-6.02-6.02-6.02-6.02 2.7-6.02 6.02 2.7 6.02 6.02 6.02z" fill="#fff"/>
<path d="m492.77 225.43h88.93" fill="none" stroke-linecap="round" stroke-linejoin="round"/>
</g>
<g stroke="#000" stroke-width="4">
<path d="M616.25 289.18H458.64V446.8H616.25V289.18Z" fill="none" stroke-linecap="round" stroke-linejoin="round"/>
<path d="m537.44 289.18c43.55 0 78.81 35.27 78.81 78.81s-35.26 78.81-78.81 78.81c-43.54 0-78.8-35.27-78.8-78.81s35.26-78.81 78.8-78.81z" fill="none" stroke-linecap="round" stroke-linejoin="round"/>
<path d="m624.86 359.38h-17.22v17.22h17.22v-17.22z" fill="#d7efed"/>
<path d="m467.25 359.38h-17.22v17.22h17.22v-17.22z" fill="#d7efed"/>
<path d="m546.06 280.57h-17.23v17.22h17.23v-17.22z" fill="#d7efed"/>
<path d="m546.06 438.19h-17.23v17.22h17.23v-17.22z" fill="#d7efed"/>
<path d="m537.44 359.94v16.1" fill="none" stroke-linecap="round" stroke-linejoin="round"/>
<path d="M545.49 367.99H529.4" fill="none" stroke-linecap="round" stroke-linejoin="round"/>
</g>
<g stroke="#000" stroke-width="4">
<path d="m1154.3 356.23h215.01c9.81 0 17.75 7.93 17.75 17.74v317.66c0 9.81-7.94 17.75-17.75 17.75h-215.01c-9.8 0-17.74-7.94-17.74-17.75v-317.66c0-9.81 7.94-17.74 17.74-17.74z" fill="#d7efed"/>
<path d="m1236.7 356.23v353.15" fill="none" stroke-linecap="round" stroke-linejoin="round"/>
<path d="m1186.6 356.23v353.15" fill="none" stroke-linecap="round" stroke-linejoin="round"/>
<path d="m1286.8 356.23v353.15" fill="none" stroke-linecap="round" stroke-linejoin="round"/>
<path d="m1336.9 356.23v353.15" fill="none" stroke-linecap="round" stroke-linejoin="round"/>
<path d="m1136.5 608.59h250.5" fill="none" stroke-linecap="round" stroke-linejoin="round"/>
<path d="m1136.5 659.04 250.5 0.23" fill="none" stroke-linecap="round" stroke-linejoin="round"/>
<path d="m1136.5 507.52 250.5 0.11" fill="none" stroke-linecap="round" stroke-linejoin="round"/>
<path d="m1136.7 558.14h250.33" fill="none" stroke-linecap="round" stroke-linejoin="round"/>
<path d="m1136.5 457.13 250.5 0.05" fill="none" stroke-linecap="round" stroke-linejoin="round"/>
<path d="m1136.5 406.68h250.5" fill="none" stroke-linecap="round" stroke-linejoin="round"/>
</g>
<path d="m468.28 571.93 18.64-41.23 12.43 42.33 50.93-21.82-30.35 44.99 38.38 25.43-50.03 3.69 6.4 48.35-34.69-34.24-32.23 25.31 6.93-39.55-44.4-3.49 39.87-25.76-22.33-42.27 40.45 18.26z" fill="none" stroke="#000" stroke-linecap="round" stroke-linejoin="round" stroke-width="4"/>
<path d="m1133.1 154.2 19.38 43.8 37.29-29.78c0.89-0.65 2.03-0.68 2.88 0.05s1.01 1.95 0.42 2.89l-26.02 42.18 49.15 24.91c0.91 0.48 1.4 1.64 1.16 2.61-0.35 1-1.34 1.68-2.4 1.57l-53.03-5.99 4.9 51.77c0.14 1.12-0.56 2.08-1.65 2.33-1.09 0.24-2.14-0.33-2.58-1.26l-21.61-50.19-38.17 32.04c-0.88 0.66-2.02 0.69-2.87-0.04s-1.01-1.96-0.42-2.89l27.06-44.72-49.67-29.73c-0.53-0.34-0.87-0.84-1.02-1.49-0.1-0.44-0.09-0.9 0.16-1.3 0.46-1.03 1.48-1.6 2.58-1.27l53.63 13.21-3.18-47.68c-0.13-1.12 0.68-2.1 1.66-2.32 0.76-0.18 1.91 0.37 2.35 1.3z" fill="#d7efed" stroke="#000" stroke-width="4"/>
<path d="m1202 742 14.09-24.73-0.36 26.36 25.12-12.31-19.09 19.97 22.99 3.09-22.28 7.1 17.03 23.8-27.03-14.22-1.7 32.67-10.97-31.4-29.37 15.9 18.34-28.31-28.49-6.18 31.15-4.64-10.43-29.06 21 21.96z" fill="#fff" stroke="#000" stroke-width="4"/>
<path d="m236.18 640.77 13.43 24.23-2.64-27.07 27.93 4.51-23.42-15.11 20.81-14.45-26.13 3.65-0.31-24-11.65 20.43-23-12.46 13.44 20.66-21.75 7.14 22.02 6.02-9.63 23.54 20.9-17.09z" fill="#fff" stroke="#000" stroke-width="4"/>
<path d="m598.38 740.44 42.04 16.54-30.84-31.01 30.44-23.72-39.58 8.38 7.47-43.47-22.11 37.96-21.14-22.29 9.25 31.31-40.03 2.87 38.94 12.86-19.13 29.58 29.01-19.58 8.61 38.53 7.07-37.96z" fill="#fff" stroke="#000" stroke-width="4"/>
<path d="m287.96 310.8 16.01 3.81-13.59 9.21 4.67 15.78-14.81-7.14-11.29 11.92-1.2-16.41-16.02-3.8 13.6-9.28-4.67-15.72 14.8 7.14 11.29-11.92 1.21 16.41z" fill="#00a699" stroke="#000" stroke-width="4"/>
<path d="m1331.2 843.59c10.13 0 18.34-8.21 18.34-18.34s-8.21-18.35-18.34-18.35-18.34 8.22-18.34 18.35 8.21 18.34 18.34 18.34z" fill="#fff" stroke="#000" stroke-width="4"/>
<path d="m300.03 871.27c14.55 0 26.33-11.79 26.33-26.34s-11.78-26.33-26.33-26.33-26.34 11.78-26.34 26.33 11.79 26.34 26.34 26.34z" fill="#fff" stroke="#000" stroke-width="4"/>
<path d="m1333.9 283.07c11.47 0 20.76-9.29 20.76-20.76s-9.29-20.76-20.76-20.76-20.76 9.29-20.76 20.76 9.29 20.76 20.76 20.76z" fill="#00a699" stroke="#000" stroke-width="4"/>
<path d="m607.98 169.02 17.2 4.08-14.6 9.9 5.01 16.95-15.9-7.67-12.13 12.8-1.3-17.63-17.19-4.08 14.6-9.96-5.02-16.89 15.9 7.67 12.13-12.81 1.3 17.64z" fill="#d7efed" stroke="#000" stroke-width="4"/>
<path d="m997.29 902.35c23.03 1.1 47.8 1.32 98.66-26.31 88.8-48.23 132.98-55.25 139.22-32.89 5.49 19.74-41.65 50.43-61.38 70.16-41.77 41.77-31.36 70.27 16.44 62.49 47.14-7.68 75.64-35.08 115.1 4.38" fill="none" stroke="#000" stroke-linecap="round" stroke-linejoin="round" stroke-width="4"/>
<path d="m154.77 767.42c13.21 3.61 47.07 14.9 80.72 3.61 28.9-9.59 16.82-38.61 8.46-46.96-12.08-12.08-24.95-9.6-24.04 2.37 1.24 18.06 31.27 37.59 107.24 51.82 57.8 10.84 89.75-14.57 89.19-38.61-1.25-49.45-61.08-111.88-83.2-86.81-18.07 20.43 42.22 62.65 84.33 83.2 42.1 20.54 102.5 37.36 127.79 42.22" fill="none" stroke="#000" stroke-linecap="round" stroke-linejoin="round" stroke-width="4"/>
<g stroke="#000" stroke-width="4">
<path d="m785.18 483.92-25.05-18.53 21.73-17.88c0.38-0.32 0.49-0.87 0.28-1.3-0.22-0.43-0.76-0.71-1.25-0.54l-26.25 6.46-3.75-26.84c-0.05-0.49-0.49-0.92-0.98-0.92-0.54-0.06-0.97 0.27-1.14 0.81l-7.77 27.82-34.61-8.96c-0.54-0.11-1.03 0.11-1.25 0.59-0.22 0.49-0.06 1.09 0.38 1.36l27.93 17.99-28.64 23.47c-0.43 0.33-0.54 0.93-0.27 1.42 0.27 0.43 0.82 0.65 1.36 0.43l33.58-13.53 4.67 24.94c0.11 0.49 0.55 0.87 1.04 0.87h0.05c0.49 0 0.92-0.33 1.03-0.81l6.31-24.35 31.57 9.46c0.49 0.16 1.03-0.11 1.3-0.55 0.27-0.54 0.16-1.08-0.27-1.41z" fill="#fff"/>
<path d="m725.14 423.17-5.6-9.51" fill="none" stroke-linecap="round" stroke-linejoin="round"/>
<path d="m767.74 433.28 3.31-5.06" fill="none" stroke-linecap="round" stroke-linejoin="round"/>
<path d="m778.33 503.26 5.6 5.6" fill="none" stroke-linecap="round" stroke-linejoin="round"/>
<path d="m703.35 464.63h-11.8" fill="none" stroke-linecap="round" stroke-linejoin="round"/>
</g>
<path d="m676.62 239.68c54.43-66.91 157.68-94.17 184.85-46.5 39.92 69.75-66.9 184.86-103.16 153.14-20.49-18 36.35-76.53 104.32-73.77 83.92 3.39 25.57 96.67 11.32 70.3-7.93-14.7 27.26-49.89 74.83-49.89" fill="none" stroke="#000" stroke-linecap="round" stroke-linejoin="round" stroke-width="4"/>
<g stroke="#000" stroke-width="4">
<path d="m395.55 903.3 76.42 126.1c1.13 0.78 3.79 0.63 4.33-0.37l128.39-221.28c0.32-0.63-0.32-1.31-0.91-1.04l-206.81 91.91c-0.95 0.3-2.87 2.59-1.42 4.68z" fill="#00a699"/>
<path d="m396.4 901.31 76.83 126.81c0.53 0.82-0.38 1.84-1.26 1.28l-85.62-47.82 8.62-79.94c0.08-0.73 1.03-1.03 1.43-0.33z" fill="#1f2123"/>
</g>
<g stroke="#000" stroke-width="4">
<path d="m263.77 411.56-112.37 100.16c-0.58 1.29 0.07 3.92 1.18 4.28l245.99 87.73c0.69 0.21 1.26-0.57 0.87-1.11l-130.71-190.5c-0.48-0.9-3.13-2.4-4.96-0.56z" fill="#d7efed"/>
<path d="m265.92 412.05-113 100.69c-0.72 0.69-1.92-0.03-1.52-1.02l32.08-94.84 81.85-6.21c0.74-0.06 1.22 0.84 0.59 1.38z" fill="#1f2123"/>
</g>
<g stroke-width="4">
<path d="m1469 604.58-4.58-4.59-76.29-77.09-29.67-8.9 8.52 29.8 76.29 77.09 4.59 4.59c5.74 5.83 15.18 5.87 21.02 0.12 5.83-5.74 5.87-15.18 0.12-21.02z" fill="#ff303600" opacity="0" stroke="#ffffff00"/>
<path d="m1374.3 518.32 76.29 77.09-21.15 20.89-76.29-77.09-8.53-29.8 29.68 8.91z" fill="#ff3036" stroke="#000"/>
<path d="m1353.4 539.06 20.91-20.67-0.01-0.06-29.6-8.85 8.5 29.6s0.08 0.06 0.2-0.02z" fill="#fff" stroke="#000"/>
<path d="m1361.2 514.38-16.53-4.97 4.75 16.6 11.78-11.63z" fill="#3b3434" stroke="#000"/>
<path d="m1433.8 620.6c5.74 5.83 15.19 5.87 21.02 0.13 5.83-5.75 5.87-15.19 0.13-21.03l-4.59-4.58-21.14 20.89 4.58 4.59z" fill="#00a699" stroke="#000"/>
<path d="m1443.1 587.62-21.14 20.9 7.6 7.68 21.14-20.9-7.6-7.68z" fill="#3b3434" stroke="#000"/>
<path d="m1428.4 602.08-68.58-69.45" fill="none" stroke="#000" stroke-linecap="round" stroke-linejoin="round"/>
<path d="m1436.8 593.74-68.64-69.37" fill="none" stroke="#000" stroke-linecap="round" stroke-linejoin="round"/>
</g>
<g stroke-width="4">
<path d="m1283.9 290.79-73.33 42.34 42.38 73.4 73.33-42.34-42.38-73.4z" fill="#1f212300" opacity="0" stroke="#ffffff00"/>
<path d="m1268.2 286.54-73.33 42.34 42.38 73.4 73.33-42.34-42.38-73.4z" fill="#fff" stroke="#000"/>
</g>
<g stroke="#000" stroke-width="4">
<path d="m1034.4 237.03c32.88 0 59.54-26.66 59.54-59.54 0-32.89-26.66-59.55-59.54-59.55-32.89 0-59.55 26.66-59.55 59.55 0 32.88 26.66 59.54 59.55 59.54z" fill="#ff3036"/>
<path d="m1059 159.67c-5.99-6-15.64-6-21.64 0l-3.13 3.13-3.13-3.13c-6.08-5.83-15.73-5.65-21.64 0.43-5.65 5.91-5.65 15.21 0 21.12l22.86 22.86c1.04 1.05 2.78 1.05 3.82 0l22.86-22.86c5.91-5.91 6-15.56 0-21.55z" fill="#fff"/>
</g>
<g stroke-width="4">
<path d="m913.33 397.93c-25.9-1.02-28.45-11.73-38.34 3.16-1.22 1.83-16.01-0.41-17.03 2.04-3.16 8.56-4.79 21.41-6.52 32.93 0 0-9.18 1.84-9.9 5.71-0.71 4.49 7.35 10.81 7.35 10.81-3.37 10.5-5 22.53 2.65 33.24 11.01 15.5 39.05 11.42 39.05 11.42l0.31 7.14 25.79 12.95 43.44-12.95 0.2-5.71c-2.55-22.23-9.79-62.71-9.79-74.44 0-32.12-7.44-25.18-37.21-26.3z" fill="#fde3d8" stroke="#000"/>
<path d="m890.69 497.24 0.31 7.14 11.42 9.28 11.42-16.32c2.04-2.96-0.92-6.63-4.29-5.4l-18.86 5.3z" fill="#fde3d800" opacity="0" stroke="#ffffff00"/>
<path d="m861.02 397.11c9.99-14.99 26.71-22.74 52.92-21.72 29.98 1.12 48.02 18.76 48.13 51.09 0 11.42-1.02 49.96-1.74 72.19 0 0-23.45-0.31-33.75-13.67 0 0 21.62-20.59 11.32-35.99s-33.95 3.06-33.95 3.06c-15.6-7.34-10-22.84-8.57-26.1 0.1-0.21-0.1-0.51-0.41-0.41-4.48 1.43-31.2 8.67-24.16-16.11 0.1-0.31-0.1-0.51-0.41-0.51-9.89-0.21-12.44-5.81-12.44-5.81 0.82-2.14 1.94-4.08 3.06-6.02z" fill="#050505" stroke="#000"/>
<path d="m858.06 460.94c7.24 1.22 11.32-4.89 11.32-4.89" fill="none" stroke="#000" stroke-linecap="round" stroke-linejoin="round"/>
<path d="m890.69 497.24 16.52-4.59" fill="none" stroke="#000" stroke-linecap="round" stroke-linejoin="round"/>
<path d="m911.39 466.14 8.87-3.98" fill="none" stroke="#000" stroke-linecap="round" stroke-linejoin="round"/>
<path d="m863.77 439.73c-1.74 0-3.16-1.42-3.16-3.16s1.42-3.16 3.16-3.16c1.75 0 3.16 1.42 3.16 3.16s-1.41 3.16-3.16 3.16z" stroke="#000"/>
<path d="m891 1006.2 2.85-6.62c-1.32-12.04-3.06-23.35-5.2-34.57l-5.3-15.4-103.09 1.63 2.25 13.46c2.44 7.65 4.08 15.5 5.2 23.46l27.53 53.93 75.76-35.89z" fill="#fde3d8" stroke="#000"/>
<path d="m952.38 754.09c-7.34-31.71-19.07-51.7-19.07-51.7l-3.46 4.18s-136.02 15.19-177.73 64.75c-34.05 40.38 13.67 138.67 30.49 193.73h106.04c-9.17-47.72-24.37-90.44-42.52-126.44h24.37c66.08 0.11 91.87-40.78 81.88-84.52z" fill="#fff" stroke="#000"/>
<path d="m752.02 771.32c41.7-49.56 177.72-64.75 177.72-64.75l3.47-4.18s11.73 19.99 19.07 51.7c9.99 43.74-18.66 70.86-84.84 70.66l-21.31 13.86c3.67 7.35 7.14 14.69 10.61 22.64 5.2 11.73-55.78 22.02-58.84 103.8h-15.29c-16.82-55.06-64.54-153.35-30.59-193.73z" fill="#ffffff00" opacity="0" stroke="#ffffff00"/>
<path d="m782.61 965.05h106.04" fill="none" stroke="#000" stroke-linecap="round" stroke-linejoin="round"/>
<path d="m752.63 1057.8c11.01-18.36 35.38-23.25 35.59-60.26 0-2.04-0.41-8.36-0.51-9.38h24.57c7.75-0.11 13.97 6.11 14.07 13.86 0 0.82-0.1 1.63-0.2 2.55l-3.88 24.07s27.02-27.03 71.58-29.06c1.02 8.05 1.53 16.51 2.04 24.87 0.21 2.96 0.31 6.33 0.51 9.39 0.31 7.64 1.02 15.9 1.02 23.96l-0.81 1.53-143.67-1.13c0-0.1-0.31-0.4-0.31-0.4z" fill="#d7efed" stroke="#000"/>
<path d="m752.63 1057.8h144.79c0.2 6.62 0 13.66-0.2 20.7h-149.89c-0.1-4.9 0.71-9.69 2.14-14.38 0.92-2.24 1.94-4.39 3.16-6.32z" fill="#fff" stroke="#000"/>
<path d="m785.16 1017.4 16.41 6.93" fill="none" stroke="#000" stroke-linecap="round" stroke-linejoin="round"/>
<path d="m778.02 1030.5 13.15 10.09" fill="none" stroke="#000" stroke-linecap="round" stroke-linejoin="round"/>
<path d="m822.38 1028.4-5.51 29.47" fill="none" stroke="#000" stroke-linecap="round" stroke-linejoin="round"/>
<path d="m756.71 963.21-82.9-48.94-12.84 11.83c-2.35 12.13-3.57 21.21-5.51 25.18l5.61 61.49h74.43l10.3-4.79c4.39-11.83 7.24-21.42 10.4-32.94l0.51-11.83z" fill="#fde3d8" stroke="#000"/>
<path d="m984.29 734.92-6.01-36.4-122.97 3.56s-115.32 16.01-148.36 52.11c-28.04 35.07-26.92 71.17-37.83 128.57-2.85 15.4-5.71 30.9-8.15 43.34l95.23 48.94c16.72-62.71 18.46-96.15 18.35-136.63l125.11 0.31c55.27 0.51 96.26-50.27 84.63-103.8z" fill="#fff" stroke="#000"/>
<path d="m660.97 926.1 95.23 48.94" fill="none" stroke="#000" stroke-linecap="round" stroke-linejoin="round"/>
<path d="m593.26 995.74c18.05-11.52 42.42-5.3 59.24-38.34 1.02-1.83 1.84-3.87 2.86-6.01 0-0.11 0.1-0.21 0.2-0.21l17.34 8.36c8.05 3.88 11.52 13.56 7.64 21.62-0.4 0.82-0.81 1.53-1.32 2.24l-12.54 18.05s37.21-12.64 79.12 6.53c-2.65 7.13-5.51 14.37-8.46 21.71-1.12 2.86-2.55 5.82-3.67 8.88-2.96 7.13-10.2 22.02-10.2 22.02l-2.85 1.43-127.36-64.55c-0.2-0.4-0.1-1.63 0-1.73z" fill="#d7efed" stroke="#000"/>
<path d="m588.78 999.21c1.42-1.23 2.95-2.45 4.48-3.47l130.21 64.85c-2.85 6.02-6.22 11.73-9.58 17.95l-134.19-66.89c2.24-4.8 5.3-8.98 9.08-12.44z" fill="#fff" stroke="#000"/>
<path d="m639.55 974.94 11.02 13.26" fill="none" stroke="#000" stroke-linecap="round" stroke-linejoin="round"/>
<path d="m626.71 983.2 6.62 13.87" fill="none" stroke="#000" stroke-linecap="round" stroke-linejoin="round"/>
<path d="m666.57 1001.4-17.84 22.02" fill="none" stroke="#000" stroke-linecap="round" stroke-linejoin="round"/>
<path d="m768.23 923.65c6.02-33.03 6.53-57.2 6.32-85.24" fill="none" stroke="#000" stroke-linecap="round" stroke-linejoin="round"/>
<path d="m846.13 838.61-71.58-0.2" fill="none" stroke="#000" stroke-linecap="round" stroke-linejoin="round"/>
<path d="m784.55 623.27c17.74 8.36 31.81 15.29 31.81 15.29s9.18-50.98 20.39-79.53c11.22-28.55 27.53-43.84 54.04-45.88l0.21-8.77h69.13v9.58c32.32 4.18 52 48.03 65.26 94.93 13.25 46.9 15.7 117.26-41.1 125.93l-7.13-32.74-105.43 0.21s-16.62 22.84-51.29 18.76c-20.6-2.45-50.17-19.47-73.62-34.97l-2.65-3.06 30.49-60.16 9.89 0.41z" fill="#ff3036" stroke="#000"/>
<path d="m1005.9 727.07c-6.63 4.07-13.76 6.52-21.62 7.75l-7.13-32.74 6.32-47.82c9.18 0 5.2 18.97 10.3 43.44 4.38 21.11 12.13 29.37 12.13 29.37z" fill="#ff303600" opacity="0" stroke="#ffffff00"/>
<path d="m871.73 702.29c9.78-17.44 23.14-49.45 30.28-89.22" fill="none" stroke="#000" stroke-linecap="round" stroke-linejoin="round"/>
<path d="m986.23 633.77-9.07 68.31" fill="none" stroke="#000" stroke-linecap="round" stroke-linejoin="round"/>
<path d="m816.36 638.56 10.4 22.03" fill="none" stroke="#000" stroke-linecap="round" stroke-linejoin="round"/>
<path d="m1001.9 675.27-20.69-4.08" fill="none" stroke="#000" stroke-linecap="round" stroke-linejoin="round"/>
<path d="m688.29 609.4 10.1 10.09c0.41 0.41 1.02 0.82 1.63 0.92 2.75 0.61 10.91 2.35 18.45 1.84 2.76-0.21 4.18-3.37 2.55-5.51-4.69-6.32-11.93-17.43-7.64-21 3.77-3.16 42.31 13.97 71.17 27.53l-37.73 62.81c-16.01-10.61-29.06-20.29-34.46-24.07-7.85-5.71-13.97-13.66-17.13-22.94-0.11-0.41-0.31-0.71-0.51-1.02-2.14-2.65-13.05-16.92-12.24-26.61 0.21-2.86 3.77-4.08 5.81-2.04z" fill="#fde3d8" stroke="#000"/>
<path d="m871.73 702.29c17.02-26.92 28.04-78 28.04-78h1.12c6.93 1.73 10.19 6.22 12.13 18.55 2.14 16.73 7.44 46.3 20.5 59.35l-61.79 0.1z" fill="#ff303600" opacity="0" stroke="#ffffff00"/>
<path d="m695.02 638.56c7.14 5.1 26.82 4.08 26.82 4.08" fill="none" stroke="#000" stroke-linecap="round" stroke-linejoin="round"/>
<path d="m705.12 655.69c9.28 3.26 21.51 3.26 21.51 3.26" fill="none" stroke="#000" stroke-linecap="round" stroke-linejoin="round"/>
<path d="m721.02 616.74 11.73 13.66" fill="none" stroke="#000" stroke-linecap="round" stroke-linejoin="round"/>
</g>
<g stroke-width="4">
<path d="m954.73 841.52h-27.5v182.88h27.5v-182.88z" fill="#1f2123" stroke="#000"/>
<path d="m1055.4 665.08h-105.53c-14.05 0-27.41 11.42-29.85 25.36l-27.7 157.52h156.35l27.7-157.52c2.44-13.94-7.02-25.36-20.97-25.36z" fill="#00a699" stroke="#000"/>
<path d="m872.9 1022.4h136.65c7.61 0 13.75 6.24 13.75 13.75 0 7.61-6.24 13.75-13.75 13.75h-136.65c-7.6 0-13.75-6.24-13.75-13.75 0-7.61 6.24-13.75 13.75-13.75z" fill="#00a699" stroke="#000"/>
<path d="m872.9 1077.5c7.6 0 13.76-6.16 13.76-13.75 0-7.6-6.16-13.76-13.76-13.76-7.59 0-13.75 6.16-13.75 13.76 0 7.59 6.16 13.75 13.75 13.75z" fill="#1f2123" stroke="#000"/>
<path d="m941.27 1077.5c7.6 0 13.76-6.16 13.76-13.75 0-7.6-6.16-13.76-13.76-13.76-7.59 0-13.75 6.16-13.75 13.76 0 7.59 6.16 13.75 13.75 13.75z" fill="#1f2123" stroke="#000"/>
<path d="m1009.6 1077.5c7.59 0 13.75-6.16 13.75-13.75 0-7.6-6.16-13.76-13.75-13.76-7.6 0-13.76 6.16-13.76 13.76 0 7.59 6.16 13.75 13.76 13.75z" fill="#1f2123" stroke="#000"/>
<path d="m899.24 808.17-7.02 39.79h156.34l2.93-16.97-152.25-22.82z" fill="#00a69900" opacity="0" stroke="#ffffff00"/>
<path d="m775.56 837.13h139.67c7.61 0 13.76 6.25 13.76 13.76 0 7.6-6.25 13.75-13.76 13.75h-139.67c-7.6 0-13.75-6.24-13.75-13.75s6.24-13.76 13.75-13.76z" fill="#00a699" stroke="#000"/>
<path d="m893.58 837.13h154.4c7.6 0 13.75 6.25 13.75 13.76 0 7.6-6.24 13.75-13.75 13.75h-154.4c-7.61 0-13.75-6.24-13.75-13.75s6.14-13.76 13.75-13.76z" fill="#00a699" stroke="#000"/>
<path d="m894.56 835.18h155.37" fill="none" stroke="#000" stroke-linecap="round" stroke-linejoin="round"/>
</g>
</svg>
